/* XPM */
static char * minnie_xpm[] = {
"30 32 364 2",
"  	c None",
". 	c #EAB0C8",
"+ 	c #BC8BA1",
"@ 	c #A6788C",
"# 	c #EF96BD",
"$ 	c #F0A2C3",
"% 	c #CE729C",
"& 	c #ED85B3",
"* 	c #D486A8",
"= 	c #E1B5C8",
"- 	c #AE4176",
"; 	c #ED80B2",
"> 	c #D5A9BB",
", 	c #B34B7E",
"' 	c #F2BBD2",
") 	c #E75CA0",
"! 	c #BE889F",
"~ 	c #EB9ABC",
"{ 	c #CC769D",
"] 	c #DD87AE",
"^ 	c #98667E",
"/ 	c #E580AE",
"( 	c #EE79AF",
"_ 	c #DD85AD",
": 	c #BF7597",
"< 	c #EC429A",
"[ 	c #F2C8DA",
"} 	c #EA7FB0",
"| 	c #B35A84",
"1 	c #ECCFDB",
"2 	c #BE7294",
"3 	c #BBADB4",
"4 	c #C94687",
"5 	c #F1A9C7",
"6 	c #EF84B4",
"7 	c #DB4893",
"8 	c #B8447D",
"9 	c #F6DBE7",
"0 	c #EB4199",
"a 	c #F0A0C3",
"b 	c #F0B9D1",
"c 	c #AD3C73",
"d 	c #E5D2DA",
"e 	c #DBA1BA",
"f 	c #AC3973",
"g 	c #F9E5F1",
"h 	c #EA499B",
"i 	c #EF91BB",
"j 	c #E6C6D5",
"k 	c #A63C70",
"l 	c #EC6FA9",
"m 	c #EC6BA7",
"n 	c #EC5FA4",
"o 	c #F2BDD3",
"p 	c #AD4979",
"q 	c #B26F8C",
"r 	c #BA3E7C",
"s 	c #A17687",
"t 	c #F2BED4",
"u 	c #EB429B",
"v 	c #F1BFD5",
"w 	c #ED75AC",
"x 	c #E3539A",
"y 	c #040304",
"z 	c #010001",
"A 	c #100F10",
"B 	c #812D56",
"C 	c #EE77AD",
"D 	c #EF9BBF",
"E 	c #EE7BAF",
"F 	c #EF95BC",
"G 	c #EF8AB6",
"H 	c #AD6F8B",
"I 	c #21171B",
"J 	c #020102",
"K 	c #27101D",
"L 	c #B65481",
"M 	c #DC72A3",
"N 	c #ED79AD",
"O 	c #F0A2C5",
"P 	c #EC78AD",
"Q 	c #ED7FB0",
"R 	c #EA88B4",
"S 	c #060103",
"T 	c #141415",
"U 	c #45313A",
"V 	c #F4D6E3",
"W 	c #EA489A",
"X 	c #EE8EB9",
"Y 	c #F0A3C3",
"Z 	c #EB499B",
"` 	c #F2BCD1",
" .	c #E96BA6",
"..	c #8A4967",
"+.	c #D892B0",
"@.	c #B25B86",
"#.	c #B28196",
"$.	c #ED7CB0",
"%.	c #E966A6",
"&.	c #F1B9D1",
"*.	c #EC5EA5",
"=.	c #EE89B6",
"-.	c #ED98BD",
";.	c #4B3E41",
">.	c #0C0509",
",.	c #D8448E",
"'.	c #F4D1E1",
").	c #ED81B2",
"!.	c #CA6896",
"~.	c #C5B0BA",
"{.	c #BE3A7C",
"].	c #DFB9C8",
"^.	c #BA9BA9",
"/.	c #EA469A",
"(.	c #F6DEEA",
"_.	c #A94175",
":.	c #AF6287",
"<.	c #C087A0",
"[.	c #E64496",
"}.	c #F2CBDC",
"|.	c #ED7AAF",
"1.	c #EC5FA5",
"2.	c #D1B1BE",
"3.	c #020002",
"4.	c #1B181A",
"5.	c #453D40",
"6.	c #ECBACE",
"7.	c #EA4399",
"8.	c #EDA3C4",
"9.	c #EF9BBE",
"0.	c #EA459A",
"a.	c #EFCDDC",
"b.	c #D55192",
"c.	c #963565",
"d.	c #F1B7CE",
"e.	c #ED419B",
"f.	c #BF879F",
"g.	c #EE8BB8",
"h.	c #EB509E",
"i.	c #F6DAE8",
"j.	c #EB429A",
"k.	c #F09EC1",
"l.	c #F0B0CB",
"m.	c #EB439B",
"n.	c #64314A",
"o.	c #6A394E",
"p.	c #F096BC",
"q.	c #EE9CC0",
"r.	c #EC74AC",
"s.	c #ED77AE",
"t.	c #ED97BC",
"u.	c #EE82B3",
"v.	c #EE8AB6",
"w.	c #B76E8F",
"x.	c #EC76AD",
"y.	c #F2B4D0",
"z.	c #B45380",
"A.	c #ED7DB0",
"B.	c #EF99BE",
"C.	c #EC6BA9",
"D.	c #F0A5C6",
"E.	c #EB72AB",
"F.	c #ED70AC",
"G.	c #8F2C5E",
"H.	c #7E2C54",
"I.	c #EC459B",
"J.	c #F0B4CD",
"K.	c #ED68A7",
"L.	c #ED70AA",
"M.	c #EEAEC9",
"N.	c #ED5DA3",
"O.	c #E99DBE",
"P.	c #8F7C85",
"Q.	c #B63B78",
"R.	c #B3A6AB",
"S.	c #832D58",
"T.	c #D4729E",
"U.	c #ED91B9",
"V.	c #EC78AE",
"W.	c #F09CC0",
"X.	c #EF93BB",
"Y.	c #70264A",
"Z.	c #815C6D",
"`.	c #F7DDE9",
" +	c #ED439B",
".+	c #F0AFCC",
"++	c #F0A3C4",
"@+	c #EC429B",
"#+	c #D7C8CF",
"$+	c #CDB3A7",
"%+	c #F4DDC8",
"&+	c #B9A998",
"*+	c #120F0E",
"=+	c #D7C5B2",
"-+	c #E8D4BF",
";+	c #C3A59F",
">+	c #C5BDBF",
",+	c #D3408B",
"'+	c #EB93B8",
")+	c #E4A2BE",
"!+	c #A7376F",
"~+	c #46192F",
"{+	c #C83F84",
"]+	c #DCB9C9",
"^+	c #D45D95",
"/+	c #BD5183",
"(+	c #C7AAA5",
"_+	c #F0DAC4",
":+	c #FDE4CD",
"<+	c #FBE3CC",
"[+	c #CDBDAA",
"}+	c #FCE2CC",
"|+	c #FEE4CD",
"1+	c #FAE1CB",
"2+	c #FAE3CC",
"3+	c #A79A8C",
"4+	c #030103",
"5+	c #030102",
"6+	c #020101",
"7+	c #A6988A",
"8+	c #FDE4CC",
"9+	c #FDE4CE",
"0+	c #ECD8C3",
"a+	c #E4D2BE",
"b+	c #F3DCC8",
"c+	c #ECD6C1",
"d+	c #DDCBBA",
"e+	c #EFDAC5",
"f+	c #060505",
"g+	c #020203",
"h+	c #262526",
"i+	c #181718",
"j+	c #1E1E1E",
"k+	c #DCC8B5",
"l+	c #E9D5C2",
"m+	c #D2C2B1",
"n+	c #F3DDC7",
"o+	c #D7C7B4",
"p+	c #DAC7B5",
"q+	c #E6D2C0",
"r+	c #766E66",
"s+	c #060404",
"t+	c #F9E1CC",
"u+	c #CEC0B0",
"v+	c #B2AFAC",
"w+	c #E5D2C0",
"x+	c #DFCCBA",
"y+	c #BFBEBB",
"z+	c #CFC1AF",
"A+	c #F2DBC6",
"B+	c #FEE4CE",
"C+	c #A6998B",
"D+	c #423D39",
"E+	c #FDE5CE",
"F+	c #DBC8B5",
"G+	c #F9F9F9",
"H+	c #D8D3CD",
"I+	c #D4CEC7",
"J+	c #FEFFFE",
"K+	c #D4C5B6",
"L+	c #B4A493",
"M+	c #5C5750",
"N+	c #D6C6B5",
"O+	c #FFFFFF",
"P+	c #DCDCDB",
"Q+	c #FAE4CE",
"R+	c #D4D4D2",
"S+	c #CEC3B6",
"T+	c #BBAA9A",
"U+	c #36332F",
"V+	c #FDE5CD",
"W+	c #D5C4B2",
"X+	c #E7E7E7",
"Y+	c #EDD9C5",
"Z+	c #E3E4E4",
"`+	c #D7C9BD",
" @	c #B1A191",
".@	c #585858",
"+@	c #030202",
"@@	c #F3DCC7",
"#@	c #E4CFBB",
"$@	c #B4B4B4",
"%@	c #C1C1C1",
"&@	c #EDD9C6",
"*@	c #999999",
"=@	c #E5E6E5",
"-@	c #DCC8B6",
";@	c #FDE4CB",
">@	c #A19586",
",@	c #010002",
"'@	c #D2BFAD",
")@	c #FBE4CD",
"!@	c #504B46",
"~@	c #818180",
"{@	c #FAE6D0",
"]@	c #58534E",
"^@	c #ADACA8",
"/@	c #FAE2CC",
"(@	c #6E665D",
"_@	c #9F9284",
":@	c #CBB9A6",
"<@	c #DFCAB8",
"[@	c #B0A396",
"}@	c #BCAEA1",
"|@	c #C2B3A3",
"1@	c #BCAD9C",
"2@	c #F8E1CB",
"3@	c #D2BFAC",
"4@	c #EDD7C2",
"5@	c #BAAC9C",
"6@	c #FCE4CD",
"7@	c #FBE2CB",
"8@	c #E7D4C0",
"9@	c #786F65",
"0@	c #010102",
"a@	c #57514C",
"b@	c #E6D1BE",
"c@	c #F5DDC8",
"d@	c #ECD7C2",
"e@	c #F6DFCA",
"f@	c #E3D0BC",
"g@	c #CCBDAE",
"h@	c #F7E1CB",
"i@	c #A49689",
"j@	c #B1A292",
"k@	c #EDD7C3",
"l@	c #BCADA0",
"m@	c #FBE2CC",
"n@	c #F8E0CA",
"o@	c #DCCAB8",
"p@	c #F2DCC7",
"q@	c #4B453F",
"r@	c #6A6159",
"s@	c #EBD5C1",
"t@	c #FCE4CE",
"u@	c #C8B8A8",
"v@	c #F4DEC7",
"w@	c #D4C2B2",
"x@	c #EBD6C1",
"y@	c #FAE3CE",
"z@	c #E8D2BD",
"A@	c #FCE5CE",
"B@	c #C6B7A7",
"C@	c #F5DFC9",
"D@	c #F7DFCA",
"E@	c #E7D2BE",
"F@	c #BFAF9F",
"G@	c #9C8F82",
"H@	c #CCBAA8",
"I@	c #E0CCB8",
"J@	c #D7C3B0",
"K@	c #B2A395",
"L@	c #D3C1B0",
"M@	c #EAD4C0",
"N@	c #BCAD9D",
"O@	c #C0A79A",
"P@	c #DE917D",
"Q@	c #D18875",
"R@	c #D28977",
"S@	c #C3B2A3",
"T@	c #DDCAB8",
"U@	c #D6C2B2",
"V@	c #D6B9A8",
"W@	c #CBBBAB",
"                                                            ",
"              . +                       @ #                 ",
"            $ % & *                   = - ; >               ",
"          , ' ) ! ~ {               ] ^ / ( _               ",
"          : < [ } | 1             2 3 4 5 6 7               ",
"          8 9 0 a b c d           e f g h i j               ",
"          k l $ m n o p q       r s t u v w x y z z         ",
"    A z z B C D ; E F G H I J K L M N O P Q R S z z z J     ",
"  T z z z U V W X Y Z `  ...+.@.#.$.%.&.*.=.-.;.z z z z     ",
"  z z z z >.,.'.).!.~.{.].^./.(._.:.<.[.}.|.1.2.3.z z z z   ",
"4.z z z z 5.6.7.8.9.0.a.b.c.d.e.f.g.h.i.j.k.l.m.n.z z z z   ",
"z z z z z o.p.q.r.s.t.u.v.w.x.y.z.A.B.C.D.E.F.o G.z z z z   ",
"z z z z z H.I.J.K.L.M.N.O.P.Q.R.S.T.U.V.W.).|.X.Y.z z z z   ",
"  z z z z Z.`. +.+++@+#+$+%+&+*+=+-+;+>+,+'+)+!+J z z z z   ",
"  z z z z ~+{+]+^+/+(+_+:+<+:+[+}+|+1+2+3+4+5+z z z z z     ",
"    z z z z 6+J J 7+8+9+0+a+|+:+b+c+d+:+e+f+z g+z z J       ",
"      h+z z i+j+z k+:+l+m+m+:+|+n+o+p+q+9+r+z               ",
"              z s+t+|+e+u+v+w+9+x+y+z+A+B+C+z               ",
"              z D+E+|+B+F+G+H+:+I+J+K+B+|+L+z z             ",
"              z M+:+|+|+N+O+P+Q+R+O+S+B+|+T+z z             ",
"              z U+V+|+|+W+J+X+Y+Z+O+`+|+|+ @z z             ",
"            .@z +@@@|+|+#@$@%@&@*@=@-@|+;@>@z z             ",
"              z ,@'@|+|+)@!@~@{@]@^@/@|+V+(@z ,@            ",
"              _@:@<@|+|+:+[@}@|@1@N+e+|+2@3@4@5@            ",
"              6@|+B+|+|+7@8@9@5+0@a@b@:+c@2@9+d@            ",
"              e@|+f@g@h@|+i@z z z z j@|+k@l@m@              ",
"                :+n@o@p@|+k+q@,@z r@s@t@u@t@v@              ",
"                  |+:+w@x@|+y@z@s@A@e@B@C@D@                ",
"                    E@:+F@G@H@I@J@K@L@:+M@                  ",
"                        N@O@P@Q@R@S@T@                      ",
"                            U@V@W@                          ",
"                                                            "};
