/* XPM */
static char * cat1_xpm[] = {
"36 36 16 1",
" 	c #FFFFFF",
".	c #000002",
"+	c #FFD772",
"@	c #DFA94B",
"#	c #B5642D",
"$	c #CD8331",
"%	c #F1F1F1",
"&	c #4B2413",
"*	c #111111",
"=	c #4A2412",
"-	c #86441F",
";	c #C2752F",
">	c #904B22",
",	c #9C5426",
"'	c #5E2E17",
")	c #000001",
"                                    ",
"                                    ",
"                                    ",
"                                    ",
"                                    ",
"                                    ",
"            ..        ..            ",
"           .++.      .++.           ",
"          .@@+.      .+@@.          ",
"          .@#@#......#@#@.          ",
"          .@#$$$$$$$$$$#@.          ",
"          .#$$$#$$$$#$$$$.          ",
"          .#$$#$$$$###$$$.          ",
"         .#$$$$$$$$$#$$$$#.         ",
"         .#$$$$@@$$###$$@@.         ",
"         .#$#$$$@@$$#$$@@$.         ",
"         .#$$$#...$$$$$....         ",
"         .#$$$#%.%$$$$$%.%.         ",
"         .#$$$#%..#####..%.         ",
"        .#$$$$#%..#####..%$.        ",
"       .#$$#$+$$@@@...@@@$+$.       ",
"       .#$$$$$++++@@.@@+++$$.       ",
"       .#$$$$+@@@@.....@@@+$.       ",
"        .#$$$$+++++$$$++++$.        ",
"         .&&&$$@@@@@@@@@@&.&        ",
"         &##$&&&&&&&&&&&&$##&       ",
"       **&#$@@+&$@@$$$&+@@$#.&=     ",
"      *-&.$@@++&@@@@$@&++@@$.;>=    ",
"      &#-#.@@++&@@@$$$&++@@.;;>=    ",
"      &#-##.&&&$$@@@$@@&&&&#,,'*    ",
"       ))))))))))))))))))))))))     ",
"                                    ",
"                                    ",
"                                    ",
"                                    ",
"                                    "};
