/* XPM */
static char * cat2_xpm[] = {
"36 36 16 1",
" 	c #FFFFFF",
".	c #000002",
"+	c #FFD772",
"@	c #DFA94B",
"#	c #B5642D",
"$	c #CD8331",
"%	c #F1F0F0",
"&	c #4B2413",
"*	c #111111",
"=	c #4A2412",
"-	c #874420",
";	c #C4772F",
">	c #914D22",
",	c #9F5626",
"'	c #5A2D16",
")	c #000001",
"                                    ",
"                                    ",
"                                    ",
"                                    ",
"                                    ",
"             ..      ..             ",
"            .++.    .++.            ",
"           .@@+.    .+@@.           ",
"           .#@$#....#$@#.           ",
"          .@#$$$$$$$$$$#@.          ",
"          .#$$$#$$$$#$$$$.          ",
"          .#$$#$$$$###$$$.          ",
"         .#$$$$$$$$$#$$$$#.         ",
"         .#$$$$@@$$###$$@@.         ",
"         .#$#$$$@@$$#$$@@$.         ",
"         .#$$$#...$$$$$....         ",
"         .#$$$#%.%$$$$$%.%.         ",
"         .#$$$#%..#####..%.         ",
"        .#$$$$#%..#####..%$.        ",
"       .#$$#$+$$@@@...@@@$+$.       ",
"       .#$$$$$++++@@.@@+++$$.       ",
"       .#$$$$+@@@@.....@@@+$.       ",
"        .#$$$$+++++$$$++++$.        ",
"         .##$$$@@@@@@@@@@$.         ",
"          .....&&&&&&&&..*          ",
"          .&&##$$@@$$$@@$&&.        ",
"       **.##$&&$@@@@$@@&&$##.&=     ",
"      *-&.#$@@+&@@@$$$&+@@$#.;>=    ",
"      &#-.$@@++&$@@@$@&++@@$.;>=    ",
"      &#-#.@@++&$$$$$$&++@@.,,'*    ",
"       )))))))))))))))))))))))*     ",
"                                    ",
"                                    ",
"                                    ",
"                                    ",
"                                    "};
