/* XPM */
static char * cat_hurt_xpm[] = {
"36 36 98 2",
"  	c #FFFFFF",
". 	c #000002",
"+ 	c #BC0007",
"@ 	c #970005",
"# 	c #FFD772",
"$ 	c #FD311B",
"% 	c #FD2516",
"& 	c #A80006",
"* 	c #DFA94B",
"= 	c #FD2415",
"- 	c #FC1A10",
"; 	c #FB3017",
"> 	c #B5642D",
", 	c #FB2F17",
"' 	c #FB0B0D",
") 	c #FC1B10",
"! 	c #D10008",
"~ 	c #CD8331",
"{ 	c #D47B2E",
"] 	c #FA110E",
"^ 	c #FB2413",
"/ 	c #DE6E29",
"( 	c #EF7A36",
"_ 	c #F17132",
": 	c #F73315",
"< 	c #FB1A0F",
"[ 	c #FC2012",
"} 	c #EB873B",
"| 	c #EE4D1D",
"1 	c #FB0F0E",
"2 	c #FA000B",
"3 	c #FB000B",
"4 	c #F7000B",
"5 	c #6E0003",
"6 	c #F53A17",
"7 	c #FC080D",
"8 	c #FD1B20",
"9 	c #FC000B",
"0 	c #FC2226",
"a 	c #F0491B",
"b 	c #F1F1F1",
"c 	c #AB0006",
"d 	c #F6BEBE",
"e 	c #EF4C1D",
"f 	c #FB0A0D",
"g 	c #FD1A1F",
"h 	c #FB0C0D",
"i 	c #A60006",
"j 	c #F8A2A2",
"k 	c #F32614",
"l 	c #FC2B2E",
"m 	c #F9000B",
"n 	c #F6000B",
"o 	c #F52213",
"p 	c #AA0006",
"q 	c #FA8C8D",
"r 	c #FEB560",
"s 	c #F43E18",
"t 	c #F63616",
"u 	c #F65927",
"v 	c #FD5E31",
"w 	c #FD5D30",
"x 	c #FEA356",
"y 	c #FEB55F",
"z 	c #F84720",
"A 	c #F84920",
"B 	c #E39F46",
"C 	c #F1461B",
"D 	c #FD6E39",
"E 	c #4B2413",
"F 	c #E95921",
"G 	c #F26A2E",
"H 	c #901F11",
"I 	c #E90A0D",
"J 	c #A11D11",
"K 	c #111111",
"L 	c #E98E3F",
"M 	c #FE8947",
"N 	c #772112",
"O 	c #4A2412",
"P 	c #86441F",
"Q 	c #C2752F",
"R 	c #904B22",
"S 	c #EF7935",
"T 	c #F16F30",
"U 	c #F53816",
"V 	c #F53917",
"W 	c #CE140F",
"X 	c #F75224",
"Y 	c #F84820",
"Z 	c #E20E0D",
"` 	c #AF1B10",
" .	c #9C5426",
"..	c #5E2E17",
"+.	c #000001",
"@.	c #A70005",
"#.	c #BC0006",
"$.	c #CF0008",
"                                                                        ",
"                                                                        ",
"                                                                        ",
"                                                                        ",
"                                                                        ",
"                                                                        ",
"                        . .                 + @                         ",
"                      . # # .             . $ % &                       ",
"                    . * * # .             . = - ; +                     ",
"                    . * > * > . . . . . . > , ' ) !                     ",
"                    . * > ~ ~ ~ ~ ~ ~ ~ ~ ~ { ] ^ .                     ",
"                    . > ~ ~ ~ > ~ ~ ~ ~ > ~ ~ / / .                     ",
"                    . > ~ ~ > ~ ~ ~ ~ > > > ~ ~ ~ .                     ",
"                  . > ~ ~ ~ ~ ~ ~ ~ ~ ~ > ~ ~ ~ ~ > .                   ",
"                  . > ~ ~ / / ( _ ~ ~ > > > ~ ~ * * .                   ",
"                  . > ~ > { : < [ } ~ ~ > ~ ~ * * ~ .                   ",
"                  . > ~ ~ | 1 2 3 4 ~ ~ ~ ~ ~ . 5 5 .                   ",
"                  . > ~ ~ 6 7 8 9 0 a ~ ~ ~ ~ b c d .                   ",
"                  . > ~ ~ e f g 9 3 h > > > > . i j .                   ",
"                . > ~ ~ ~ { k l m n o > > > > . p q ~ .                 ",
"              . > ~ ~ > ~ r s t u } * . . . * * * ~ # ~ .               ",
"              . > ~ ~ ~ ~ { v w x # * * . * * # # # ~ ~ .               ",
"              . > ~ ~ ~ ~ y z A B * . . . . . * * * # ~ .               ",
"                . > ~ ~ ~ C w D # # # ~ ~ ~ # # # # ~ .                 ",
"                  . E E E F t G * * * * * * * * * E . E                 ",
"                  E > > ~ H I J E E E E E E E E E ~ > > E               ",
"              K K E > ~ * L M N ~ * * ~ ~ ~ E # * * ~ > . E O           ",
"            K P E . ~ * * # # E * * * * ~ * E # # * * ~ . Q R O         ",
"            E > P > . * * # # E L S T U t V W # # * * . Q Q R O         ",
"            E > P > > . E E E ~ / S X A t z Y Z ` E E >  . ...K         ",
"              +.+.+.+.+.+.+.+.+.+.+.+.+.+.+.@.#.$.+.+.+.+.+.+.          ",
"                                                                        ",
"                                                                        ",
"                                                                        ",
"                                                                        ",
"                                                                        "};
