/* XPM */
static char * fairy_xpm[] = {
"36 36 298 2",
"  	c #FFFFFF",
". 	c #FFFFFC",
"+ 	c #EBE7E7",
"@ 	c #E4D0D0",
"# 	c #C79593",
"$ 	c #D2A09F",
"% 	c #CF5F5E",
"& 	c #C77A77",
"* 	c #D2AAA8",
"= 	c #D43333",
"- 	c #DEBDBC",
"; 	c #D8B6B6",
"> 	c #E21314",
", 	c #F40102",
"' 	c #E8C8C7",
") 	c #C9A5A3",
"! 	c #EBE6E6",
"~ 	c #EAE2E2",
"{ 	c #E7D8D8",
"] 	c #D91212",
"^ 	c #E33F3D",
"/ 	c #FDFCFC",
"( 	c #CE5958",
"_ 	c #FA0100",
": 	c #EC0201",
"< 	c #F4EDEC",
"[ 	c #C03938",
"} 	c #E8D8D7",
"| 	c #DCC2C2",
"1 	c #C28686",
"2 	c #E6DBDA",
"3 	c #E0D0D0",
"4 	c #D08584",
"5 	c #F60101",
"6 	c #E27876",
"7 	c #F3EEEE",
"8 	c #DE0101",
"9 	c #FD0100",
"0 	c #DE2727",
"a 	c #EBE2E1",
"b 	c #DD0202",
"c 	c #DDB2B1",
"d 	c #E9DFDE",
"e 	c #E3C7C6",
"f 	c #CF8180",
"g 	c #DC3434",
"h 	c #D17B7A",
"i 	c #DABDBD",
"j 	c #CF9D9C",
"k 	c #D80304",
"l 	c #FC0100",
"m 	c #DF7977",
"n 	c #EDDEDD",
"o 	c #ED0101",
"p 	c #E27572",
"q 	c #E1CBCB",
"r 	c #EF0100",
"s 	c #CF5959",
"t 	c #ECE1E1",
"u 	c #D8ACAB",
"v 	c #CD6665",
"w 	c #DC5959",
"x 	c #E21517",
"y 	c #F10101",
"z 	c #FA0101",
"A 	c #E19F9F",
"B 	c #D38A89",
"C 	c #D07B7A",
"D 	c #E1C8C7",
"E 	c #EF0202",
"F 	c #DF7978",
"G 	c #E0CACA",
"H 	c #F30100",
"I 	c #DF8B8A",
"J 	c #E5C6C6",
"K 	c #E79897",
"L 	c #D66060",
"M 	c #E6D7D6",
"N 	c #CF9494",
"O 	c #D74849",
"P 	c #E70605",
"Q 	c #F70101",
"R 	c #F50101",
"S 	c #DEC0BE",
"T 	c #D80C0D",
"U 	c #DC8787",
"V 	c #D69898",
"W 	c #F90101",
"X 	c #DA7D7B",
"Y 	c #E1BCBB",
"Z 	c #FB0100",
"` 	c #E1A9A8",
" .	c #DDC9C8",
"..	c #E1C3C2",
"+.	c #CF9695",
"@.	c #E4D4D3",
"#.	c #CD5152",
"$.	c #E90B0B",
"%.	c #E38A89",
"&.	c #CD8181",
"*.	c #F00403",
"=.	c #E2ACAC",
"-.	c #D44D4D",
";.	c #E39F9E",
">.	c #DBA2A1",
",.	c #E7C1C1",
"'.	c #F3EFEE",
").	c #F1E0E0",
"!.	c #C53F3E",
"~.	c #D03433",
"{.	c #F40101",
"].	c #E96A69",
"^.	c #D18D8C",
"/.	c #E61918",
"(.	c #D7B6B4",
"_.	c #E40304",
":.	c #E3B9B9",
"<.	c #D66D6D",
"[.	c #FC0101",
"}.	c #EBD7D7",
"|.	c #EBD8D8",
"1.	c #CF0102",
"2.	c #CA6464",
"3.	c #F40202",
"4.	c #F30908",
"5.	c #DD7978",
"6.	c #E62324",
"7.	c #E66564",
"8.	c #D5A4A3",
"9.	c #F30101",
"0.	c #E5D5D3",
"a.	c #D90304",
"b.	c #EB0101",
"c.	c #F4EEED",
"d.	c #E0BFBF",
"e.	c #DA0102",
"f.	c #E3D1D0",
"g.	c #E70506",
"h.	c #F90100",
"i.	c #DEB9B9",
"j.	c #D52928",
"k.	c #E3504E",
"l.	c #E4CFCD",
"m.	c #ED0303",
"n.	c #E24E4C",
"o.	c #FEFEFE",
"p.	c #FEFFFE",
"q.	c #D6908F",
"r.	c #DF0102",
"s.	c #D79B9A",
"t.	c #F80101",
"u.	c #DF8080",
"v.	c #CE7372",
"w.	c #F20605",
"x.	c #E6B0AF",
"y.	c #E29999",
"z.	c #F7F5F4",
"A.	c #D61E1D",
"B.	c #DB0D0C",
"C.	c #D77976",
"D.	c #EF2523",
"E.	c #DD8180",
"F.	c #EB1012",
"G.	c #EC3836",
"H.	c #DEC5C3",
"I.	c #DE0E0E",
"J.	c #EAD0CF",
"K.	c #D9B7B7",
"L.	c #EE0505",
"M.	c #E27775",
"N.	c #DE5E5D",
"O.	c #F50100",
"P.	c #E0ADAC",
"Q.	c #CF5454",
"R.	c #E93C3B",
"S.	c #FAF7F7",
"T.	c #D03F3D",
"U.	c #E6B7B7",
"V.	c #E16867",
"W.	c #EF3D3C",
"X.	c #F35858",
"Y.	c #F50102",
"Z.	c #E78C8A",
"`.	c #D47070",
" +	c #F00809",
".+	c #E4ACAC",
"++	c #FEFFFF",
"@+	c #FBFAFA",
"#+	c #CD8484",
"$+	c #F00707",
"%+	c #EE1616",
"&+	c #DD7B79",
"*+	c #ED6664",
"=+	c #F1D9D8",
"-+	c #F3E8E8",
";+	c #EB0B0B",
">+	c #F50303",
",+	c #DC3837",
"'+	c #F00303",
")+	c #EB504F",
"!+	c #F9F5F5",
"~+	c #CD9494",
"{+	c #E71615",
"]+	c #FB0201",
"^+	c #E6A6A5",
"/+	c #E19D9C",
"(+	c #E98584",
"_+	c #E4CDCD",
":+	c #EC0303",
"<+	c #FB0101",
"[+	c #F32927",
"}+	c #EFDDDC",
"|+	c #F0E9E9",
"1+	c #D08A8A",
"2+	c #E41F1F",
"3+	c #E96262",
"4+	c #E5BFBF",
"5+	c #E57C7B",
"6+	c #DCB0B0",
"7+	c #F70100",
"8+	c #F42C2B",
"9+	c #E2BAB8",
"0+	c #D8A8A7",
"a+	c #D14D4D",
"b+	c #EA0B0B",
"c+	c #EF4A49",
"d+	c #E8CBCB",
"e+	c #EC1F1F",
"f+	c #DE3F3F",
"g+	c #E80302",
"h+	c #EE5C5C",
"i+	c #F3E7E7",
"j+	c #E66261",
"k+	c #EB8B8A",
"l+	c #EA7675",
"m+	c #F13B3A",
"n+	c #EBC3C3",
"o+	c #F0D4D4",
"p+	c #EF9D9C",
"q+	c #F06061",
"r+	c #FD0101",
"s+	c #F60504",
"t+	c #ECA09F",
"u+	c #E6D4D4",
"v+	c #D65E5E",
"w+	c #EC8280",
"x+	c #F3E5E4",
"y+	c #D1A0A0",
"z+	c #D83938",
"A+	c #F20101",
"B+	c #EF615F",
"C+	c #EFD1D1",
"D+	c #E5D6D6",
"E+	c #CE6564",
"F+	c #E61A1C",
"G+	c #F23E3D",
"H+	c #EDBEBE",
"I+	c #CCA5A3",
"J+	c #D3A4A3",
"K+	c #D63838",
"L+	c #F20102",
"M+	c #F40D0C",
"N+	c #ECA5A4",
"O+	c #CC8989",
"P+	c #D19090",
"Q+	c #E2CECF",
"R+	c #CC6462",
"S+	c #E51D1C",
"T+	c #F60201",
"U+	c #EC8785",
"V+	c #F5E8E8",
"W+	c #DFCBCA",
"X+	c #E00F0F",
"Y+	c #D57D7B",
"Z+	c #EEE4E3",
"`+	c #CE8C8B",
" @	c #DA3736",
".@	c #ED6B6A",
"+@	c #F1D6D6",
"@@	c #CC5352",
"#@	c #E4504F",
"$@	c #D65150",
"%@	c #EA0405",
"&@	c #ED4545",
"*@	c #EEC4C3",
"=@	c #D6AFAF",
"-@	c #EC0909",
";@	c #F02524",
">@	c #EDAEAD",
",@	c #D22F2F",
"'@	c #F80201",
")@	c #ED9392",
"!@	c #D3A7A7",
"~@	c #EE0606",
"{@	c #EC7573",
"]@	c #F3DEDE",
"^@	c #C45D5C",
"/@	c #EDCBCA",
"  . . . . . . . . . . . . . . . . . . . . . . . . . . + . . . . . .     ",
"  . . . . . . . . . . . . . . . . . . . . . @ # . $ % & . . . . . .     ",
"  . . . . . . . . . . . . . . . . . . . . * = - ; > , ' ) ! . . . .     ",
"  . . . . . . . . . . . . . . . ~ . . . { ] ^ / ( _ : < [ } . . . .     ",
"  . . . . . . . . . . . . . . | 1 2 3 . 4 5 6 7 8 9 0 a b c . . . .     ",
"  . . . . . . . . . . . d e f g h i j . k l m n o 9 p q r s . . . .     ",
"  . . . . . . . . t u v w x y z A B C D E 9 F G H l I J K L M . . .     ",
"  . . . . . . . N O P Q l 9 9 R S T U V W 9 X Y 5 Z `  ./ ..+.. . .     ",
"  . . . . . @.#.$._ 9 9 9 9 l %.&.*.=.-.l l ;.>.W W ,.'.  ).!.. . .     ",
"  . . . . d ~.{.9 9 9 9 9 l ].^./.R (._.9 _ :.<.[.R }.    |.1.. . .     ",
"  . . . . 2.3.9 9 9 9 9 9 4.5.6.Z 7.8.3.9 9.0.a.9 b.c.    d.e.. . .     ",
"  . . . f.g.9 9 9 9 9 9 9 h.5 l Q i.j.l 9 k.l.m.9 n.o.  p.q.r.. . .     ",
"  . . . s.t.9 9 9 9 9 9 9 9 9 l u.v.w.9 l x.f t.l y.    z.A.B.. . .     ",
"  . . . C.[.9 9 9 9 9 9 9 9 9 D.E.F.9 9 G.H.I.9 t.J.    K.L.M.. . .     ",
"  . . . N.9 9 9 9 9 9 9 9 9 9 5 O.9 9 W P.Q.Q 9 R.S.  '.T.W U.. . .     ",
"  . . . V.9 9 9 z W.X.Y.9 9 9 9 9 9 Z Z.`. +9 l .+++@+#+$+%+. . . .     ",
"  . . . &+9 [.*+=+. . -+;+9 9 9 9 9 >+,+'+9 9 )+!+@+~+{+]+^+. . . .     ",
"  . . . /+Z (+. . . . _+:+9 9 9 9 9 9 <+9 9 [+}+|+1+2+l 3+. . . . .     ",
"  . . . 4+5+. . . . . 6+7+9 9 9 9 9 9 9 9 8+9+0+a+b+l c+. . . . . .     ",
"  . . . . . . . . . . d+Q 9 9 9 9 9 9 9 9 e+f+g+W 9 h+i+. . . . . .     ",
"  . . . . . . . . . . . j+9 9 9 9 9 9 9 9 9 9 9 ]+k+. . . . . . . .     ",
"  . . . . . . . . . . . . l+Z 9 9 9 9 9 9 9 9 m+n+. . . . . . . . .     ",
"  . . . . . . . . . . . . . o+p+q+r+9 9 9 s+t+. . . . . . . . . . .     ",
"  . . . . . . . . . . . . . . u+v+W 9 z w+x+. . . . . . . . . . . .     ",
"  . . . . . . . . . . . . . y+z+A+r+B+C+. . . . . . . . . . . . . .     ",
"  . . . . . . . . . . . D+E+F+z G+H+. . . . . . . . . . . . . . . .     ",
"  . . . . . I+. . . . J+K+L+M+N+. . . . . . . . . . . . . . . . . .     ",
"  . . . . O+P+. . Q+R+S+T+U+V+. . . . . . . . . . . . . . . . . . .     ",
"  . . . W+X+Y+Z+`+ @y .@+@. . . . . . . . . . . . . . . . . . . . .     ",
"  . . . @@t.#@$@%@&@*@. . . . . . . . . . . . . . . . . . . . . . .     ",
"  . . =@-@9 _ ;@>@. . . . . . . . . . . . . . . . . . . . . . . . .     ",
"  . . ,@Z '@)@. . . . . . . . . . . . . . . . . . . . . . . . . . .     ",
"  . !@~@{@]@. . . . . . . . . . . . . . . . . . . . . . . . . . . .     ",
"  . ^@/@. . . . . . . . . . . . . . . . . . . . . . . . . . . . . .     ",
"  . . . . . . . . . . . . . . . . . . . . . . . . . . . . . . . . .     ",
"  . . . . . . . . . . . . . . . . . . . . . . . . . . . . . . . . .     "};
