/* XPM */
static char * tomb_xpm[] = {
"26 26 166 2",
"  	c #FFFFFF",
". 	c #FBFBFC",
"+ 	c #EEEFF1",
"@ 	c #DCDCE4",
"# 	c #DAD9E5",
"$ 	c #DEDDEB",
"% 	c #E4E3EE",
"& 	c #F4F4F7",
"* 	c #FDFDFD",
"= 	c #FFFFFE",
"- 	c #E2E3E8",
"; 	c #A4A5BA",
"> 	c #7E7CAA",
", 	c #8C88BD",
"' 	c #9590C7",
") 	c #9691C7",
"! 	c #9690C7",
"~ 	c #9492C3",
"{ 	c #BEBED6",
"] 	c #F1F1F6",
"^ 	c #D5D5DE",
"/ 	c #8080A3",
"( 	c #7D7AAC",
"_ 	c #948FC5",
": 	c #9792C8",
"< 	c #938EC5",
"[ 	c #8484BA",
"} 	c #A5A5C9",
"| 	c #EAEAEE",
"1 	c #8485A5",
"2 	c #72729F",
"3 	c #918DC1",
"4 	c #938FC5",
"5 	c #BAB9D4",
"6 	c #FEFEFE",
"7 	c #BFC0CD",
"8 	c #6C6D98",
"9 	c #7E7CAC",
"0 	c #9595C1",
"a 	c #EFEFF4",
"b 	c #F8F8F9",
"c 	c #9F9FB6",
"d 	c #6A6B98",
"e 	c #8683B5",
"f 	c #9691C6",
"g 	c #928EC4",
"h 	c #8383B9",
"i 	c #8D8DBE",
"j 	c #E0E0EA",
"k 	c #F5F5F7",
"l 	c #9091AD",
"m 	c #6B6B98",
"n 	c #8F8ABE",
"o 	c #72719F",
"p 	c #7574A2",
"q 	c #8582B3",
"r 	c #7C7AAA",
"s 	c #73719F",
"t 	c #6F6F9D",
"u 	c #797AAC",
"v 	c #8B8BBD",
"w 	c #DCDCE8",
"x 	c #8E8FAC",
"y 	c #6A6B97",
"z 	c #7776A4",
"A 	c #938FC4",
"B 	c #8C88BB",
"C 	c #7372A0",
"D 	c #71709D",
"E 	c #7A79A8",
"F 	c #7876A4",
"G 	c #6D6D9A",
"H 	c #6F709E",
"I 	c #7475A5",
"J 	c #8B8BBC",
"K 	c #8D89BD",
"L 	c #8B87BA",
"M 	c #8784B5",
"N 	c #7B79A8",
"O 	c #6E6E9B",
"P 	c #7879AB",
"Q 	c #8282B8",
"R 	c #7574A3",
"S 	c #948FC4",
"T 	c #8F8BBF",
"U 	c #8681B4",
"V 	c #8481B2",
"W 	c #8784B6",
"X 	c #8581B4",
"Y 	c #7676A7",
"Z 	c #7E7EB1",
"` 	c #8383B8",
" .	c #8380B1",
"..	c #9590C4",
"+.	c #9590C5",
"@.	c #8987BD",
"#.	c #8884B7",
"$.	c #8E8AC1",
"%.	c #8584BA",
"&.	c #8181AF",
"*.	c #D8D9E1",
"=.	c #9892C9",
"-.	c #9791C8",
";.	c #938EC4",
">.	c #8B88BF",
",.	c #8787B7",
"'.	c #8180B2",
").	c #8C8AC0",
"!.	c #8886BC",
"~.	c #8585BB",
"{.	c #DBDCE7",
"].	c #7B7BAE",
"^.	c #8C8BBD",
"/.	c #D7D7DF",
"(.	c #A5A5BB",
"_.	c #76779D",
":.	c #70709D",
"<.	c #908CC1",
"[.	c #928DC4",
"}.	c #A5A4C9",
"|.	c #BDBCD5",
"1.	c #F4F5F6",
"2.	c #9696B1",
"3.	c #686996",
"4.	c #9591C7",
"5.	c #9490C6",
"6.	c #8D8AC0",
"7.	c #8383BA",
"8.	c #9594C1",
"9.	c #FCFCFC",
"0.	c #DCDBE3",
"a.	c #70719A",
"b.	c #8784B8",
"c.	c #8783B8",
"d.	c #8683B7",
"e.	c #8582B6",
"f.	c #8281B5",
"g.	c #8D8DB9",
"h.	c #F9F9FA",
"i.	c #D5D5DD",
"j.	c #666895",
"k.	c #706F9D",
"l.	c #8D8ABD",
"m.	c #7978A6",
"n.	c #7877A5",
"o.	c #8482B3",
"p.	c #918DC4",
"q.	c #8787BC",
"r.	c #D3D2E2",
"s.	c #646594",
"t.	c #676996",
"u.	c #676896",
"v.	c #6E6D9C",
"w.	c #8C88BF",
"x.	c #8E8BC2",
"y.	c #807FB3",
"z.	c #807EB2",
"A.	c #8481B7",
"B.	c #8784BC",
"C.	c #8282B9",
"D.	c #A09FC6",
"E.	c #F2F2F6",
"F.	c #EFEFF2",
"G.	c #D6D6DE",
"H.	c #DAD9E6",
"I.	c #DBDAE6",
"                                                    ",
"                                                    ",
"                  . + @ # $ % & *                   ",
"              = - ; > , ' ) ! ~ { ]                 ",
"              ^ / ( _ : : : : < [ } &               ",
"            | 1 2 3 : : : : : 4 [ [ 5 6             ",
"          * 7 8 9 : : : : : : 4 [ [ 0 a             ",
"          b c d e : : f ) : ) g h [ i j             ",
"          k l m e : n o p q r s t u v w             ",
"          k x y z A B C D E F G H I J w             ",
"          k x y G K L o 2 M N O P Q v w             ",
"          k x y R S T U V W X Y Z ` v w             ",
"          k x y  .: ) ..+.S @.` ` h v w             ",
"          k x m #.: : : ) $.%.[ [ ` &.*.            ",
"          k x m #.=.-.;.>.%.[ [ [ [ ,.*.            ",
"          k x d '.).!.~.[ [ [ [ [ [ v {.            ",
"          k x d ].[ [ [ [ [ [ [ [ [ v w             ",
"          k x d ].%.%.%.%.%.%.%.%.%.^.w             ",
"        /.(._.:.<.g [.[.[.[.[.[.[.[.g }.|.*         ",
"      1.2.3.y 2 4.' ' ' ' ' ' ' ' 5.6.7.8.9.        ",
"      0.a.y y t b.b.b.c.d.d.d.d.d.d.e.f.g.h.        ",
"      i.j.y y k.+.: : l.m.n.n.n.n.n.o.p.q.r.        ",
"      i.s.t.u.v.w.x.x.@.y.z.z.z.z.z.A.B.C.D.E.      ",
"      F.i.i.i.G.H.H.H.H.H.H.H.H.H.H.H.# # I.&       ",
"                                                    ",
"                                                    "};
